<?xml version="1.0" encoding="UTF-8"?>
<svg xmlns="http://www.w3.org/2000/svg" xmlns:xlink="http://www.w3.org/1999/xlink" width="375pt" height="374.999991pt" viewBox="0 0 375 374.999991" version="1.2">
<defs>
<clipPath id="clip1">
  <path d="M 82 201 L 293 201 L 293 362.449219 L 82 362.449219 Z M 82 201 "/>
</clipPath>
<clipPath id="clip2">
  <path d="M 12.316406 12.316406 L 362.449219 12.316406 L 362.449219 316 L 12.316406 316 Z M 12.316406 12.316406 "/>
</clipPath>
</defs>
<g id="surface1">
<g clip-path="url(#clip1)" clip-rule="nonzero">
<path style=" stroke:none;fill-rule:nonzero;fill:rgb(0%,0%,0%);fill-opacity:1;" d="M 292.421875 306.425781 C 292.421875 248.507812 245.300781 201.386719 187.382812 201.386719 C 129.460938 201.386719 82.339844 248.507812 82.339844 306.425781 L 82.339844 327.335938 C 111.621094 349.375 148 362.449219 187.382812 362.449219 C 226.765625 362.449219 263.136719 349.375 292.421875 327.335938 Z M 292.421875 306.425781 "/>
</g>
<path style=" stroke:none;fill-rule:nonzero;fill:rgb(0%,0%,0%);fill-opacity:1;" d="M 236.398438 138.363281 C 236.398438 111.332031 214.40625 89.34375 187.382812 89.34375 C 160.351562 89.34375 138.363281 111.332031 138.363281 138.363281 C 138.363281 165.394531 160.351562 187.382812 187.382812 187.382812 C 214.40625 187.382812 236.398438 165.394531 236.398438 138.363281 Z M 236.398438 138.363281 "/>
<g clip-path="url(#clip2)" clip-rule="nonzero">
<path style=" stroke:none;fill-rule:nonzero;fill:rgb(255%,255%,255%);fill-opacity:1;" d="M 187.382812 12.316406 C 90.851562 12.316406 12.316406 90.851562 12.316406 187.382812 C 12.316406 237.976562 33.910156 283.589844 68.335938 315.585938 L 68.335938 299.425781 C 68.335938 298.773438 68.539062 298.183594 68.707031 297.582031 C 72.433594 247.246094 107.59375 205.574219 154.59375 192.082031 C 136.492188 180.988281 124.359375 161.09375 124.359375 138.363281 C 124.359375 103.617188 152.632812 75.339844 187.382812 75.339844 C 222.136719 75.339844 250.40625 103.617188 250.40625 138.363281 C 250.40625 161.09375 238.269531 180.988281 220.175781 192.082031 C 269.902344 206.367188 306.425781 252.171875 306.425781 306.425781 L 306.425781 315.585938 C 340.851562 283.597656 362.449219 237.976562 362.449219 187.382812 C 362.449219 90.851562 283.914062 12.316406 187.382812 12.316406 Z M 187.382812 12.316406 "/>
</g>
</g>
</svg>
