<?xml version="1.0" encoding="UTF-8"?>
<svg xmlns="http://www.w3.org/2000/svg" xmlns:xlink="http://www.w3.org/1999/xlink" width="375pt" height="374.999991pt" viewBox="0 0 375 374.999991" version="1.2">
<defs>
<clipPath id="clip1">
  <path d="M 4.628906 58.824219 L 370.628906 58.824219 L 370.628906 315.664062 L 4.628906 315.664062 Z M 4.628906 58.824219 "/>
</clipPath>
</defs>
<g id="surface1">
<g clip-path="url(#clip1)" clip-rule="nonzero">
<path style=" stroke:none;fill-rule:nonzero;fill:rgb(91.369629%,11.369324%,0%);fill-opacity:1;" d="M 367.230469 114.226562 C 367.230469 114.226562 363.644531 89.078125 352.671875 78.003906 C 338.757812 63.464844 323.121094 63.394531 315.988281 62.535156 C 264.710938 58.855469 187.828125 58.855469 187.828125 58.855469 L 187.6875 58.855469 C 187.6875 58.855469 110.804688 58.855469 59.527344 62.535156 C 52.390625 63.394531 36.757812 63.464844 22.84375 78.003906 C 11.871094 89.078125 8.285156 114.226562 8.285156 114.226562 C 8.285156 114.226562 4.628906 143.734375 4.628906 173.277344 L 4.628906 200.964844 C 4.628906 230.507812 8.285156 260.015625 8.285156 260.015625 C 8.285156 260.015625 11.871094 285.164062 22.84375 296.238281 C 36.792969 310.777344 55.082031 310.3125 63.222656 311.847656 C 92.515625 314.636719 187.757812 315.527344 187.757812 315.527344 C 187.757812 315.527344 264.710938 315.421875 315.988281 311.707031 C 323.160156 310.847656 338.757812 310.777344 352.671875 296.238281 C 363.644531 285.164062 367.230469 260.015625 367.230469 260.015625 C 367.230469 260.015625 370.886719 230.472656 370.886719 200.964844 L 370.886719 173.277344 C 370.886719 143.734375 367.230469 114.226562 367.230469 114.226562 Z M 149.925781 234.507812 L 149.925781 131.980469 L 248.894531 183.421875 Z M 149.925781 234.507812 "/>
</g>
<path style=" stroke:none;fill-rule:nonzero;fill:rgb(100%,100%,100%);fill-opacity:1;" d="M 149.925781 131.980469 L 149.925781 234.507812 L 248.894531 183.421875 Z M 149.925781 131.980469 "/>
</g>
</svg>
